# xmcd
#
# Track frame offsets:
#	150
#	17372
#	34087
#	53266
#	67295
#
# Disc length: 1073 seconds
#
# Revision: 1
# Processed by: cddbd v1.5.1PL0 Copyright (c) Steve Scherf et al.
# Submitted via: audiograbber 1.83.01
#
DISCID=35042f05
DTITLE=Joey DANIELS - Limited Edition
DYEAR=2005
DGENRE=Country
TTITLE0=Swinging Door
TTITLE1=I'll Be Your Whiskey
TTITLE2=Do It Again
TTITLE3=Kiss-n-Tell
TTITLE4=Take Me Off The Market
EXTD=
EXTT0=
EXTT1=
EXTT2=
EXTT3=
EXTT4=
PLAYORDER=
